<?xml version="1.0" standalone="no"?>
<!DOCTYPE svg PUBLIC "-//W3C//DTD SVG 20010904//EN"
 "http://www.w3.org/TR/2001/REC-SVG-20010904/DTD/svg10.dtd">
<svg version="1.0" xmlns="http://www.w3.org/2000/svg"
 width="840.000000pt" height="284.000000pt" viewBox="0 0 840.000000 284.000000"
 preserveAspectRatio="xMidYMid meet">

<g transform="translate(0.000000,284.000000) scale(0.100000,-0.100000)"
fill="#000000" stroke="none">
<path d="M4180 2020 c-137 -19 -385 -90 -525 -150 -39 -17 -45 -17 -45 -4 0 8
5 24 10 35 6 11 8 24 5 30 -11 16 -34 -9 -47 -52 -13 -45 -22 -55 -62 -65 -27
-6 -28 -5 -22 22 18 93 18 104 3 104 -15 0 -37 -73 -37 -125 0 -21 -14 -32
-100 -75 -207 -104 -232 -171 -92 -255 l49 -30 6 -100 c5 -83 4 -102 -9 -110
-9 -5 -36 -23 -62 -40 -90 -59 -79 -119 33 -175 39 -19 84 -40 100 -46 l30
-11 -25 -11 c-14 -6 -37 -13 -52 -16 -17 -4 -28 -13 -28 -22 0 -14 7 -15 42
-10 23 4 57 16 75 27 19 12 41 18 50 15 14 -6 13 -10 -6 -30 -13 -14 -36 -30
-52 -36 -16 -7 -29 -19 -29 -26 0 -33 72 -3 114 47 l27 31 89 -17 c85 -17 89
-19 84 -40 -7 -27 25 -65 54 -65 11 0 38 14 62 31 l43 31 151 -12 c83 -7 223
-10 311 -9 154 4 162 3 189 -18 37 -30 49 -29 89 7 19 17 43 30 53 30 72 1
244 113 301 195 l38 55 45 -6 c55 -8 177 -51 245 -87 61 -33 117 -35 145 -7
26 26 25 49 -3 91 -31 47 -183 123 -307 153 l-95 23 3 59 c6 103 -23 249 -68
340 -71 145 -223 261 -405 309 -71 19 -283 28 -375 15z m390 -56 c86 -24 188
-83 257 -148 126 -117 175 -280 156 -518 -9 -108 -14 -133 -37 -172 -53 -91
-162 -172 -270 -200 -34 -8 -70 -26 -87 -42 -17 -16 -34 -24 -43 -21 -23 9
-20 24 9 43 14 9 25 23 25 30 0 22 -38 16 -62 -8 -22 -22 -33 -23 -188 -27
-91 -1 -238 2 -328 9 l-162 12 -35 -31 c-39 -34 -50 -37 -61 -19 -4 6 4 21 19
34 15 13 27 27 27 33 0 5 -25 10 -56 10 -98 0 -311 56 -431 114 -94 45 -95 77
-6 128 31 18 70 32 87 33 26 1 31 5 31 26 0 17 -7 26 -24 30 -35 8 -37 28 -4
32 22 2 28 8 28 28 0 17 -7 26 -25 30 -14 3 -26 14 -28 24 -3 14 1 17 16 12
11 -4 26 -1 34 7 7 7 25 17 40 20 36 9 59 46 66 103 4 41 3 46 -14 42 -12 -2
-21 -16 -26 -42 -10 -46 -24 -67 -43 -60 -7 3 -16 1 -20 -5 -3 -6 -14 -11 -23
-11 -22 0 -168 96 -176 115 -10 27 43 73 143 124 54 28 101 48 105 44 3 -3 6
-14 6 -23 0 -10 7 -23 15 -30 24 -20 37 0 26 38 -8 27 -6 34 12 47 21 15 22
14 30 -22 12 -63 15 -67 32 -53 12 10 14 24 9 57 l-6 43 58 26 c33 15 114 45
182 67 l124 41 16 -21 c21 -28 66 -45 97 -37 31 8 62 43 67 74 2 21 9 26 41
28 24 2 37 -1 37 -9 0 -7 10 -23 22 -36 41 -43 127 -24 149 34 9 25 12 25 72
19 34 -4 87 -14 117 -22z m590 -749 c0 -6 -5 -26 -11 -43 -9 -28 -15 -31 -37
-26 -53 11 -53 12 -46 51 4 21 8 41 10 44 6 11 84 -13 84 -26z m180 -70 c0 -2
-9 -20 -21 -39 l-21 -36 -31 16 c-18 9 -33 17 -34 18 -2 2 5 21 13 44 l17 41
38 -20 c22 -11 39 -21 39 -24z"/>
<path d="M3532 1498 c-18 -18 -14 -56 7 -68 26 -14 50 -3 57 26 11 42 -34 72
-64 42z"/>
<path d="M3855 1387 c-32 -60 3 -117 62 -102 17 4 31 20 44 50 11 25 17 50 14
55 -13 21 -33 8 -48 -30 -8 -22 -20 -40 -27 -40 -19 0 -23 30 -6 55 9 14 14
30 11 35 -12 19 -32 10 -50 -23z"/>
<path d="M4621 1391 c-15 -26 -14 -84 1 -99 7 -7 27 -12 45 -12 40 0 65 33 67
88 1 47 -25 52 -34 6 -9 -41 -18 -54 -37 -54 -15 0 -15 21 -2 69 6 23 -28 25
-40 2z"/>
<path d="M3535 1328 c-16 -6 -36 -12 -42 -14 -22 -6 -14 -24 15 -36 15 -7 34
-18 42 -24 10 -9 21 -10 30 -4 12 8 13 13 3 29 -8 13 -9 22 -3 26 14 9 12 35
-2 34 -7 -1 -26 -6 -43 -11z"/>
<path d="M3405 1199 c-4 -5 0 -18 8 -27 9 -9 17 -37 19 -62 2 -33 8 -46 21
-48 14 -3 17 4 17 50 0 32 -6 62 -16 76 -16 24 -39 29 -49 11z"/>
<path d="M3500 1145 c-17 -20 -5 -62 21 -70 22 -7 59 18 59 40 0 16 -33 45
-52 45 -9 0 -21 -7 -28 -15z"/>
</g>
</svg>
